<svg width="24" height="24" fill="none" xmlns="http://www.w3.org/2000/svg"><path d="M9.307 19.894v-2.76c0-.702.602-1.272 1.349-1.277h2.734c.75 0 1.358.572 1.358 1.277v2.769c0 .596.506 1.083 1.14 1.097h1.822c1.817 0 3.29-1.385 3.29-3.094v-7.852a2.161 2.161 0 0 0-.911-1.714l-6.234-4.723a3.138 3.138 0 0 0-3.737 0L3.911 8.348A2.144 2.144 0 0 0 3 10.063v7.843C3 19.615 4.473 21 6.29 21h1.823c.65 0 1.176-.495 1.176-1.106" stroke="#36373C" stroke-width="1.5" stroke-linecap="round" stroke-linejoin="round"/></svg>