<svg width="18" height="18" fill="none" xmlns="http://www.w3.org/2000/svg"><path d="M13.138 9.417c-.007-1.2.536-2.103 1.633-2.769-.614-.879-1.542-1.362-2.765-1.455-1.159-.092-2.426.675-2.89.675-.49 0-1.612-.644-2.494-.644-1.821.028-3.757 1.452-3.757 4.35 0 .855.157 1.74.47 2.65.418 1.199 1.926 4.136 3.5 4.088.822-.019 1.404-.583 2.474-.583 1.04 0 1.577.584 2.495.584 1.587-.023 2.951-2.693 3.348-3.896-2.128-1.003-2.014-2.939-2.014-3ZM11.29 4.055c.892-1.058.81-2.021.784-2.367-.787.045-1.698.536-2.216 1.139-.571.646-.907 1.446-.835 2.348.85.065 1.628-.373 2.267-1.12Z" fill="#1F2128"/></svg>