<svg width="18" height="18" fill="none" xmlns="http://www.w3.org/2000/svg"><path d="M6.162 10.166c.4-.633.912-1.389 1.5-2.19m.5 4.19c.403-.201 1.129-.747 2-1.494m0 0c3.458-2.965 9.195-9.107 6-9.506-2.56-.32-6.145 3.606-8.5 6.81m2.5 2.696-2.5-2.695" stroke="#36373C" stroke-linecap="round"/><path d="M7.944 13.467c0 1.59-1.395 2.795-3.284 3.223-1.094.248-2.132.216-2.834.055-.317-.072-.529-.162-.646-.238l.132-.21c.347-.54.855-1.332.786-2.56.007-1.733 1.27-3.27 2.846-3.27a3 3 0 0 1 3 3Z" stroke="#36373C"/></svg>