<svg width="16" height="16" viewBox="0 0 16 16" fill="none" xmlns="http://www.w3.org/2000/svg">
<path d="M16 8C16 12.4183 12.4183 16 8 16C3.58172 16 0 12.4183 0 8C0 3.58172 3.58172 0 8 0C12.4183 0 16 3.58172 16 8Z" fill="#FDF8F3"/>
<path fill-rule="evenodd" clip-rule="evenodd" d="M7.80111 10.4531L11.0693 7.04872C11.318 6.78975 11.3096 6.37828 11.0506 6.12967C10.7916 5.88106 10.3801 5.88946 10.1315 6.14843L7.63977 8.74402L6.17682 7.70499C5.88414 7.49713 5.47837 7.56588 5.2705 7.85856C5.06263 8.15124 5.13138 8.55701 5.42406 8.76488L7.80111 10.4531Z" fill="#FFCE22"/>
</svg>
