<svg width="193" height="45" fill="none" xmlns="http://www.w3.org/2000/svg"><path d="M189.692 18.304c1.035-1.265 1.4-2.365 1.322-3.322-.078-.958-.615-1.985-1.841-3.066-1.232-1.086-3.071-2.145-5.524-3.136-4.903-1.982-11.98-3.588-20.766-4.72-17.549-2.26-41.627-2.594-68.062-.445-26.435 2.149-50.144 6.367-67.097 11.432-4.126 1.233-7.068 2.246-11.078 3.815l-.339.23h-3.472l.428-.23C29.573 11.58 59.806 5.138 94.714 2.3c52.996-4.308 96.7 1.322 97.614 12.575.915 11.252-41.305 23.867-94.302 28.175C45.03 47.358 1.326 41.728.412 30.475c-.177-2.18 1.265-4.41 4.09-6.623v1.712a12.71 12.71 0 0 0-1.454 1.482c-1.035 1.265-1.4 2.365-1.321 3.322.077.958.615 1.985 1.84 3.066C4.8 34.52 6.639 35.579 9.093 36.57c4.902 1.982 11.98 3.588 20.765 4.72 17.55 2.26 41.628 2.594 68.063.445 26.434-2.149 50.143-6.367 67.097-11.432 8.487-2.536 15.212-5.264 19.73-8.012 2.261-1.375 3.905-2.716 4.945-3.987Z" fill="#FFCE22"/><path d="M10.556 21.623a43.94 43.94 0 0 0-2.562 1.435c-.189.115-.373.23-.553.344v-1.55c.126-.077.254-.153.383-.229h2.732Z" fill="#FFCE22"/></svg>