<svg width="18" height="18" fill="none" xmlns="http://www.w3.org/2000/svg"><path d="M16.354 7.531h-.604V7.5H9v3h4.239A4.498 4.498 0 0 1 4.5 9 4.5 4.5 0 0 1 9 4.5c1.147 0 2.19.433 2.985 1.14l2.122-2.122A7.465 7.465 0 0 0 9 1.5a7.5 7.5 0 1 0 7.354 6.031Z" fill="#FFC107"/><path d="M2.365 5.51 4.83 7.315A4.498 4.498 0 0 1 9 4.5c1.148 0 2.191.433 2.986 1.14l2.121-2.122A7.465 7.465 0 0 0 9 1.5a7.496 7.496 0 0 0-6.635 4.01Z" fill="#FF3D00"/><path d="M9 16.5a7.465 7.465 0 0 0 5.028-1.947l-2.32-1.964A4.467 4.467 0 0 1 9 13.5a4.498 4.498 0 0 1-4.231-2.98l-2.446 1.885A7.494 7.494 0 0 0 9 16.5Z" fill="#4CAF50"/><path d="M16.354 7.531h-.604V7.5H9v3h4.239a4.515 4.515 0 0 1-1.533 2.09l.001-.002 2.321 1.965C13.864 14.702 16.5 12.75 16.5 9a7.56 7.56 0 0 0-.146-1.469Z" fill="#1976D2"/></svg>