<svg width="17" height="17" fill="none" xmlns="http://www.w3.org/2000/svg"><g clip-path="url(#a)"><path fill-rule="evenodd" clip-rule="evenodd" d="M5.525.52C6.355.48 6.62.472 8.737.472s2.381.009 3.212.046c.83.038 1.396.17 1.892.362.52.197.99.503 1.38.9.397.389.703.86.898 1.38.193.495.325 1.062.363 1.89.038.833.047 1.098.047 3.213 0 2.117-.01 2.382-.047 3.213-.038.828-.17 1.395-.363 1.89-.195.52-.502.992-.898 1.381a3.82 3.82 0 0 1-1.38.899c-.496.192-1.062.324-1.891.362-.832.038-1.096.047-3.213.047s-2.381-.01-3.212-.047c-.83-.037-1.396-.17-1.892-.362a3.824 3.824 0 0 1-1.38-.899 3.82 3.82 0 0 1-.899-1.38c-.192-.495-.324-1.062-.362-1.89-.038-.833-.047-1.098-.047-3.214 0-2.116.01-2.381.047-3.211.038-.83.17-1.397.362-1.893.196-.52.503-.99.9-1.38A3.82 3.82 0 0 1 3.633.881C4.129.69 4.695.558 5.524.52Zm6.36 1.402c-.821-.038-1.068-.045-3.148-.045s-2.327.007-3.149.045c-.76.035-1.172.161-1.447.268a2.42 2.42 0 0 0-.896.583 2.417 2.417 0 0 0-.582.896c-.107.274-.234.687-.268 1.447-.038.821-.046 1.068-.046 3.148s.008 2.327.046 3.149c.034.76.161 1.172.268 1.447.125.338.324.645.582.896.252.259.558.458.896.582.275.107.687.234 1.447.269.822.037 1.068.045 3.149.045s2.327-.008 3.149-.045c.76-.035 1.172-.162 1.447-.269a2.42 2.42 0 0 0 .896-.582c.258-.251.457-.558.582-.896.107-.275.234-.687.268-1.447.038-.822.046-1.068.046-3.149 0-2.08-.008-2.327-.046-3.148-.034-.76-.161-1.173-.268-1.447a2.419 2.419 0 0 0-.582-.896 2.418 2.418 0 0 0-.896-.583c-.275-.107-.687-.233-1.447-.268Zm-4.143 8.744a2.599 2.599 0 1 0 1.87-4.849 2.6 2.6 0 0 0-1.87 4.85ZM5.905 5.432a4.005 4.005 0 1 1 5.664 5.664 4.005 4.005 0 0 1-5.664-5.664Zm7.725-.576a.946.946 0 1 0-1.298-1.377.946.946 0 0 0 1.298 1.377Z" fill="#36373C"/></g><defs><clipPath id="a"><path fill="#fff" d="M0 0h17v17H0z"/></clipPath></defs></svg>