<svg width="24" height="24" fill="none" xmlns="http://www.w3.org/2000/svg"><path fill-rule="evenodd" clip-rule="evenodd" d="M5.071 10.519v.011a9.076 9.076 0 0 0 1.863 5.193l.005.006A19.066 19.066 0 0 0 11.8 20.28a.98.98 0 0 1 .082.062.18.18 0 0 0 .236 0 .746.746 0 0 1 .083-.063 19.437 19.437 0 0 0 3.456-2.845c1.823-1.924 3.221-4.298 3.27-6.785v-.082a6.928 6.928 0 0 0-13.856-.048Zm-1.5-.004a8.428 8.428 0 0 1 16.857.056v.1c-.058 3.022-1.736 5.741-3.684 7.797l-.004.005a20.931 20.931 0 0 1-3.687 3.041 1.68 1.68 0 0 1-2.108 0A20.568 20.568 0 0 1 5.74 16.63a10.576 10.576 0 0 1-2.17-6.087v-.03Z" fill="#36373C"/><path fill-rule="evenodd" clip-rule="evenodd" d="M12 8.954a1.711 1.711 0 1 0 0 3.422 1.711 1.711 0 0 0 0-3.422Zm-3.212 1.711a3.211 3.211 0 1 1 6.422 0 3.211 3.211 0 0 1-6.422 0Z" fill="#36373C"/></svg>