<svg width="75" height="32" fill="none" xmlns="http://www.w3.org/2000/svg"><path fill-rule="evenodd" clip-rule="evenodd" d="M22.12 12.547v12.548h6.242V0H22.12v12.547Zm9.77 0v12.548h6.244V0H31.89v12.547Zm14.658-8.725a216 216 0 0 1-2.884.803l-.509.129v3.112h-2.85v5.493h2.85l.003 3.277c.002 3.565.11 4.392.747 5.696.432.886 1.512 1.901 2.407 2.264 1.335.541 3.786.762 6.052.544l.834-.08v-5.21h-1.226c-1.349 0-2-.177-2.352-.639-.189-.247-.222-.702-.222-3.072V13.36h3.8V7.866h-3.8V5.493c0-2.18-.019-2.37-.237-2.359-.13.008-1.306.317-2.613.688Zm-38.61 3.67c-1.984.333-3.678 1.17-5.174 2.556-.89.823-1.224 1.246-1.734 2.197C.257 13.685.003 14.749 0 16.554c-.007 4.326 2.712 7.545 7.338 8.685 1.476.364 4.12.39 5.756.058 1.64-.334 3.348-1.143 4.473-2.119l.942-.817-.332-.234c-.372-.261-3.764-2.426-4.035-2.574-.103-.057-.429.06-.811.294-.973.592-1.909.796-3.314.723-1.486-.078-2.508-.49-3.108-1.25-.218-.278-.397-.553-.397-.611 0-.058 2.868-.106 6.373-.106h6.372l.108-.468c.19-.822.107-3.276-.14-4.152-.4-1.418-1.209-2.749-2.352-3.867-1.862-1.821-3.834-2.623-6.629-2.695-.895-.024-1.934.009-2.307.071Zm46.617.434c0 .036 1.65 3.736 3.665 8.222 2.015 4.485 3.664 8.241 3.664 8.345 0 .105-.187.428-.416.719-.572.726-1.57 1.135-2.984 1.224l-1.078.068V32l1.526-.076c3.695-.183 6.21-1.461 8.116-4.122 1.004-1.401 1.204-1.88 4.858-11.571 1.643-4.36 3.03-8.027 3.08-8.147.086-.205-.13-.218-3.375-.218-3.183 0-3.471.017-3.537.218-.039.12-.66 2.241-1.38 4.713-.721 2.472-1.353 4.567-1.405 4.654-.053.089-.91-1.999-1.923-4.682l-1.829-4.841-3.49-.033c-1.92-.019-3.491-.004-3.491.031Zm-43.324 4.5c.882.24 1.448.678 1.87 1.444.183.333.333.634.333.671 0 .037-1.592.066-3.538.066H6.358l.093-.28c.537-1.633 2.664-2.48 4.78-1.901Z" fill="#1F2128"/></svg>