<svg width="24" height="24" fill="none" xmlns="http://www.w3.org/2000/svg"><path fill-rule="evenodd" clip-rule="evenodd" d="M5.753 8.535a.75.75 0 0 1 1.054-.119l4.3 3.432c.533.417 1.28.418 1.814.001l4.261-3.43a.75.75 0 0 1 .94 1.168l-4.272 3.44a2.973 2.973 0 0 1-3.672 0l-.005-.004-4.302-3.434a.75.75 0 0 1-.118-1.054Z" fill="#36373C"/><path fill-rule="evenodd" clip-rule="evenodd" d="M7.273 4.191c-2.43 0-4.138 1.959-4.138 4.545v6.527c0 2.586 1.709 4.545 4.138 4.545h9.423a4.207 4.207 0 0 0 3.035-1.35 4.267 4.267 0 0 0 1.126-3.195V8.736l.001-.044a4.267 4.267 0 0 0-1.127-3.15 4.207 4.207 0 0 0-3.035-1.35H7.273ZM1.635 8.736c0-3.252 2.227-6.045 5.638-6.045h9.436a5.707 5.707 0 0 1 4.122 1.83 5.767 5.767 0 0 1 1.526 4.236v6.485a5.766 5.766 0 0 1-1.526 4.235 5.707 5.707 0 0 1-4.122 1.83H7.273c-3.411 0-5.638-2.792-5.638-6.044V8.736Z" fill="#36373C"/></svg>