<svg width="17" height="17" fill="none" xmlns="http://www.w3.org/2000/svg"><path d="M.945 8.2a7.73 7.73 0 0 0 4.978 7.224c-.07-.604-.146-1.599.016-2.297.14-.6.902-3.823.902-3.823s-.23-.46-.23-1.143c0-1.069.62-1.867 1.392-1.867.657 0 .974.492.974 1.083 0 .66-.421 1.647-.638 2.562-.18.765.384 1.39 1.14 1.39 1.366 0 2.418-1.442 2.418-3.523 0-1.842-1.324-3.13-3.214-3.13-2.188 0-3.473 1.642-3.473 3.338 0 .662.254 1.37.573 1.756a.232.232 0 0 1 .053.22c-.059.244-.189.766-.214.873-.034.14-.111.17-.257.103-.961-.447-1.561-1.852-1.561-2.98 0-2.427 1.762-4.655 5.082-4.655 2.668 0 4.742 1.902 4.742 4.443 0 2.65-1.67 4.785-3.991 4.785-.78 0-1.512-.406-1.764-.884l-.479 1.828c-.181.698-.685 1.582-.997 2.084.72.221 1.484.34 2.276.34A7.728 7.728 0 1 0 .945 8.2Z" fill="#36373C"/></svg>