<svg width="18" height="18" fill="none" xmlns="http://www.w3.org/2000/svg"><g clip-path="url(#a)"><path d="M18.25 4.101a7.303 7.303 0 0 1-2.032.536 3.442 3.442 0 0 0 1.556-1.885 7.234 7.234 0 0 1-2.248.826 3.584 3.584 0 0 0-2.008-1.033 3.66 3.66 0 0 0-2.247.359 3.464 3.464 0 0 0-1.555 1.6 3.291 3.291 0 0 0-.22 2.183 10.357 10.357 0 0 1-4.04-1.034A9.989 9.989 0 0 1 2.2 3.126a3.309 3.309 0 0 0-.06 3.321c.274.495.671.917 1.156 1.229a3.635 3.635 0 0 1-1.603-.427v.044c0 .787.282 1.55.8 2.158a3.566 3.566 0 0 0 2.039 1.183 3.696 3.696 0 0 1-1.599.058 3.416 3.416 0 0 0 1.26 1.694 3.627 3.627 0 0 0 2.046.672 7.28 7.28 0 0 1-4.395 1.459 7.44 7.44 0 0 1-.845-.048A10.293 10.293 0 0 0 6.424 16c6.511 0 10.07-5.191 10.07-9.694 0-.146-.003-.294-.01-.44a7.052 7.052 0 0 0 1.764-1.762l.002-.003Z" fill="#1F2128"/></g><defs><clipPath id="a"><path fill="#fff" d="M0 0h18v18H0z"/></clipPath></defs></svg>