<svg xmlns="http://www.w3.org/2000/svg">

<symbol id="arrow-right"  fill="none" viewBox="0 0 24 24" stroke-width="1.5" stroke="currentColor" class="w-6 h-6">
  <path stroke-linecap="round" stroke-linejoin="round" d="m8.25 4.5 7.5 7.5-7.5 7.5" />
</symbol>

<symbol id="arrow-left" fill="none" viewBox="0 0 24 24" stroke-width="1.5" stroke="currentColor" class="w-6 h-6">
  <path stroke-linecap="round" stroke-linejoin="round" d="M15.75 19.5 8.25 12l7.5-7.5" />
</symbol>

<symbol id="check" xmlns="http://www.w3.org/2000/svg" fill="none" viewBox="0 0 24 24" stroke-width="1.5" stroke="currentColor" class="w-6 h-6">
  <path stroke-linecap="round" stroke-linejoin="round" d="m4.5 12.75 6 6 9-13.5" />
</symbol>

<symbol id="pagination-left" xmlns="http://www.w3.org/2000/svg" fill="none" viewBox="0 0 6 17" stroke-width="1.5" stroke="currentColor" class="w-6 h-6">
    <path d="M4.99309 4.00007L1.04297 7.9502L5.05069 11.9579" stroke="#36373C" stroke-linecap="round" stroke-linejoin="round"/>
</symbol>

<symbol id="pagination-right" xmlns="http://www.w3.org/2000/svg" fill="none" viewBox="0 0 6 17" stroke-width="1.5" stroke="currentColor" class="w-6 h-6">
    <path d="M1.00691 4.00007L4.95703 7.9502L0.949309 11.9579" stroke="#36373C" stroke-linecap="round" stroke-linejoin="round"/>
</symbol>

<symbol id="like" xmlns="http://www.w3.org/2000/svg" width="18" height="17" viewBox="0 0 18 17" fill="none">
  <path d="M16.9 3.93207C16.7946 3.45008 16.3308 2.26918 15.3187 1.40159C12.3155 -0.60085 9.88999 1.71189 9.02152 3.16174C7.27286 0.231885 5.19841 0.317106 3.93337 0.678597C3.22769 0.937133 1.84606 1.32929 1.08704 3.93207C0.581022 7.40245 2.35208 9.35455 4.5659 11.5235L8.99354 15.5C9.09896 15.3795 10.1321 14.4155 13.4212 11.5235C16.9633 8.34235 17.2163 5.13707 16.9 3.93207Z" stroke="#1F2128"/>
</symbol>

</svg>
