<svg width="18" height="18" viewBox="0 0 18 18" fill="none" xmlns="http://www.w3.org/2000/svg">
<path d="M16.3541 7.53113H15.75V7.5H9V10.5H13.2386C12.6202 12.2464 10.9586 13.5 9 13.5C6.51487 13.5 4.5 11.4851 4.5 9C4.5 6.51488 6.51487 4.5 9 4.5C10.1471 4.5 11.1907 4.93275 11.9854 5.63963L14.1067 3.51825C12.7672 2.26988 10.9755 1.5 9 1.5C4.85812 1.5 1.5 4.85813 1.5 9C1.5 13.1419 4.85812 16.5 9 16.5C13.1419 16.5 16.5 13.1419 16.5 9C16.5 8.49713 16.4482 8.00625 16.3541 7.53113Z" fill="#FFC107"/>
<path d="M2.36523 5.50913L4.82936 7.31625C5.49611 5.6655 7.11086 4.5 9.00048 4.5C10.1476 4.5 11.1912 4.93275 11.9859 5.63963L14.1072 3.51825C12.7677 2.26988 10.976 1.5 9.00048 1.5C6.11973 1.5 3.62148 3.12638 2.36523 5.50913Z" fill="#FF3D00"/>
<path d="M9.00012 16.5003C10.9374 16.5003 12.6976 15.7589 14.0285 14.5533L11.7072 12.589C10.9289 13.1809 9.97791 13.501 9.00012 13.5003C7.04937 13.5003 5.39299 12.2564 4.76899 10.5205L2.32324 12.4049C3.56449 14.8338 6.08524 16.5003 9.00012 16.5003Z" fill="#4CAF50"/>
<path d="M16.3541 7.53113H15.75V7.5H9V10.5H13.2386C12.9428 11.3312 12.41 12.0574 11.706 12.5891L11.7071 12.5884L14.0284 14.5526C13.8641 14.7019 16.5 12.75 16.5 9C16.5 8.49712 16.4482 8.00625 16.3541 7.53113Z" fill="#1976D2"/>
</svg>
