<svg width="16" height="16" viewBox="0 0 16 16" fill="none" xmlns="http://www.w3.org/2000/svg">
<path d="M16 8C16 12.4183 12.4183 16 8 16C3.58172 16 0 12.4183 0 8C0 3.58172 3.58172 0 8 0C12.4183 0 16 3.58172 16 8Z" fill="#FDF8F3"/>
<path fill-rule="evenodd" clip-rule="evenodd" d="M7.65072 10L10.919 6.59559C11.1676 6.33663 11.1592 5.92515 10.9002 5.67655C10.6412 5.42794 10.2298 5.43634 9.98115 5.6953L7.48938 8.2909L6.02643 7.25187C5.73375 7.044 5.32798 7.11275 5.12011 7.40543C4.91224 7.69811 4.98099 8.10389 5.27367 8.31175L7.65072 10Z" fill="#FFCE22"/>
</svg>
